<?xml version="1.0" encoding="UTF-8" standalone="no"?>
<svg
   id="triangleSvg"
   viewBox="-0.05 -0.05 1.1 1.1"
   width="350"
   height="350"
   version="1.1"
   xmlns="http://www.w3.org/2000/svg"
   xmlns:svg="http://www.w3.org/2000/svg">
  <defs
     id="defs5" />
  <polygon
     id="triangle"
     class="clickable"
     points="1,1 1,0 0,1 "
     fill="#b0e0e6"
     stroke="#000000"
     stroke-width="0" />
  <polygon
     id="tlsOutline"
     class="ignore-events"
     points="0.66342847,0.54766668 0.66342847,0.66526196 0.66342847,0.99395239 0.66342847,0.99395239 0.66342847,0.99395239 0.66342847,0.84309525 0.66342847,0.84309525 0.66342847,0.84309525 0.66342847,0.84309525 0.84257133,0.84309525 0.84257133,0.84309525 0.84257133,0.84309525 0.84257133,0.72680954 0.84257133,0.72680954 0.61602375,0.50026196 0.5578809,0.4421191 0.66342847,0.54766668 "
     fill="#708090"
     stroke="#000000"
     stroke-width="0.01" />
  <circle
     id="projection"
     class="ignore-events"
     cx="0.84257132"
     cy="0.72680956"
     r="0.015"
     stroke="#b0e0e6"
     stroke-width="0.005"
     fill="#808080" />
  <polyline
     id="projectionSegment"
     stroke="#808080"
     stroke-dasharray="0.03, 0.03"
     stroke-width="0.01"
     fill="none"
     points="0.999714195728302,0.5036666691303253 0.999714195728302,0.5036666691303253 0.8425713266850703,0.5036666691303253 0.8425713266850703,0.5036666691303253 0.8425713266850703,0.5036666691303253 0.8425713266850703,0.5036666691303253 0.8425713266850703,0.7268095358396773 0.8425713266850703,0.7268095358396773" />
  <circle
     style="fill:#ff0000;stroke:#ffffff;stroke-width:0.015px"
     r="0.029999999"
     cx="0.55788088"
     cy="0.44211909"
     id="circle3" />
  <circle
     style="fill:#008000;stroke:#ffffff;stroke-width:0.015px"
     r="0.029999999"
     cx="0.66342849"
     cy="0.99395239"
     id="circle4" />
  <circle
     style="fill:#0000ff;stroke:#ffffff;stroke-width:0.015px"
     r="0.029999999"
     cx="0.84257132"
     cy="0.84309524"
     id="circle5" />
  <circle
     id="divisor"
     class="clickable"
     cx="0.9997142"
     cy="0.5036667"
     r="0.02"
     stroke="#8b0000"
     stroke-width="0.02"
     fill="#ffffff" />
</svg>
