<?xml version="1.0" encoding="UTF-8" standalone="no"?>
<svg id="triangleSvg" viewBox="-0.05 -0.05 1.1 1.1" width="350" height="350"    version="1.1"
   xmlns="http://www.w3.org/2000/svg"
   xmlns:svg="http://www.w3.org/2000/svg">
            <polygon id="triangle" class="clickable" points="0,1 1,1 1,0" fill="powderblue" stroke="black" stroke-width="0"></polygon><polyline style="stroke: black; fill: none; stroke-width: 0.01px;"></polyline><polyline style="stroke: black; fill: none; stroke-width: 0.01px;"></polyline><polyline style="stroke: black; fill: none; stroke-width: 0.01px;"></polyline>
            <polygon id="tlsOutline" class="ignore-events" points="0.5578808954226965,0.4421191045773035 0.5578808954226965,0.4421191045773035 0.5578808954226965,0.4421191045773035 0.6634284726662166,0.5476666818208237 0.6634284726662166,0.5476666818208237 0.6634284726662166,0.6652619578288581 0.6634284726662166,0.993952388323933 0.6634284726662166,0.993952388323933 0.6634284726662166,0.993952388323933 0.6634284726662166,0.8430952480975299 0.6634284726662166,0.8430952480975299 0.6634284726662166,0.8430952480975299 0.6634284726662166,0.8430952480975299 0.8425713266850703,0.8430952480975299 0.8425713266850703,0.8430952480975299 0.8425713266850703,0.8430952480975299 0.8425713266850703,0.7268095358396773 0.8425713266850703,0.7268095358396773 0.6160237515516227,0.5002619607062297 0.5578808954226965,0.4421191045773035 0.5578808954226965,0.4421191045773035" fill="slategray" stroke="black" stroke-width="0.01"></polygon>
            <circle id="projection" class="ignore-events" cx="0.8425713266850703" cy="0.7268095358396773" r="0.015" stroke="powderblue" stroke-width="0.005" fill="gray"></circle>
            <polyline id="projectionSegment" stroke="gray" stroke-dasharray="0.03, 0.03" stroke-width="0.01" fill="none" points="0.999714195728302,0.5036666691303253 0.999714195728302,0.5036666691303253 0.8425713266850703,0.5036666691303253 0.8425713266850703,0.5036666691303253 0.8425713266850703,0.5036666691303253 0.8425713266850703,0.5036666691303253 0.8425713266850703,0.7268095358396773 0.8425713266850703,0.7268095358396773"></polyline>
            <circle style="fill: red; stroke: white; stroke-width: 0.015px; cursor: grab;" r="0.03" cx="0.5578808954226965" cy="0.4421191045773035"></circle><circle style="fill: green; stroke: white; stroke-width: 0.015px; cursor: grab;" r="0.03" cx="0.6634284726662166" cy="0.993952388323933"></circle><circle style="fill: blue; stroke: white; stroke-width: 0.015px; cursor: grab;" r="0.03" cx="0.8425713266850703" cy="0.8430952480975299"></circle><circle id="divisor" class="clickable" cx="0.9997141810875736" cy="0.5036666825881229" r="0.020" stroke="darkred" stroke-width="0.02" fill="white"></circle>
        </svg>
